<?xml version="1.0" encoding="UTF-8"?>
<!DOCTYPE svg PUBLIC "-//W3C//DTD SVG 1.1//EN" "http://www.w3.org/Graphics/SVG/1.1/DTD/svg11.dtd">
<!-- Creator: CorelDRAW -->
<svg xmlns="http://www.w3.org/2000/svg" xml:space="preserve" width="448.664mm" height="135.488mm" version="1.1" style="shape-rendering:geometricPrecision; text-rendering:geometricPrecision; image-rendering:optimizeQuality; fill-rule:evenodd; clip-rule:evenodd"
viewBox="0 0 67605.04 20415.49"
 xmlns:xlink="http://www.w3.org/1999/xlink"
 xmlns:xodm="http://www.corel.com/coreldraw/odm/2003">
 <defs>
  <style type="text/css">
   <![CDATA[
    .fil0 {fill:white}
   ]]>
  </style>
    <clipPath id="id0">
     <rect y="-0.03" width="67605.06" height="20415.52"/>
    </clipPath>
 </defs>
 <g id="Capa_x0020_1">
  <metadata id="CorelCorpID_0Corel-Layer"/>
  <g id="_2521301732128">
   <g style="clip-path:url(#id0)">
    <image x="-0" y="-0.03" width="67605.06" height="20415.52" xlink:href="logo_Images\logo_ImgID1.png"/>
   </g>
  </g>
  <path class="fil0" d="M16937.99 3442.93l-741.55 741c-727.19,726.66 -755.35,742.07 -1487.85,812.24 -410.91,39.33 -2608.4,275.35 -4882.97,523.59 -2274.57,248.77 -4304.1,451.83 -4509.29,451.3 -289.17,-0.53 -509.24,-129.16 -976.49,-570.9 -477.36,-451.3 -555.5,-570.91 -373.16,-575.16 125.97,-2.65 2116.7,-213.15 4422.64,-467.77 2306.45,-254.62 4969.07,-558.15 5916.87,-674.57 947.78,-116.42 1927.46,-217.94 2631.79,-239.73zm12809.19 163.73c287.05,-1.6 606.5,27.63 764.39,69.63 149.37,40.4 415.68,144.59 592.16,232.83 184.99,91.96 466.72,298.74 665.53,488.51 259.94,247.18 398.14,431.62 557.62,744.2 147.77,290.23 233.89,542.72 285.98,836.68 48.91,274.83 63.26,532.1 41.47,742.07 -18.08,177 -65.92,433.22 -106.32,569.3 -39.87,136.08 -154.15,400.81 -253.02,588.98 -120.67,228.04 -295.02,449.71 -525.73,667.65 -190.29,179.67 -478.94,397.62 -641.6,483.73 -162.13,86.11 -439.61,194.02 -616.09,240.26 -243.45,63.26 -450.78,77.62 -863.26,59.53 -359.87,-15.94 -634.17,-56.87 -813.83,-121.19 -149.37,-53.16 -398.69,-178.07 -554.96,-278.01 -155.76,-99.4 -377.95,-275.88 -493.3,-391.77 -115.35,-115.87 -292.89,-333.29 -395.49,-482.66 -102.06,-149.37 -242.4,-427.38 -312.03,-618.21 -79.74,-219.01 -136.61,-500.74 -154.69,-767.06 -17.54,-254.62 -4.25,-548.04 32.95,-742.6 33.5,-176.48 107.92,-432.69 164.8,-568.77 56.87,-136.08 184.98,-369.98 284.38,-519.88 99.4,-149.37 301.93,-383.26 450.25,-519.34 148.3,-136.08 390.16,-313.63 537.4,-393.89 147.25,-80.27 401.34,-184.46 564,-231.76 186.59,-53.69 477.88,-86.11 789.39,-88.24zm22443.31 247.18c217.4,-1.07 550.17,31.88 739.93,72.82 190.31,41.45 476.81,146.7 636.82,234.41 160.54,87.71 382.2,245.05 695.29,541.67l-789.37 776.1 -197.21 -180.2c-108.44,-99.4 -297.14,-225.92 -419.4,-281.73 -163.73,-74.42 -325.32,-101.54 -616.63,-102.07 -326.37,-0.53 -441.19,21.8 -666.05,130.23 -148.83,72.3 -341.26,216.89 -427.38,322.14 -86.11,104.71 -195.09,279.6 -241.86,388.58 -48.91,113.75 -87.18,334.35 -90.38,519.34 -2.65,177.02 23.93,422.07 59.01,544.32 35.09,122.8 146.19,332.24 246.65,465.66 111.1,146.7 289.71,301.39 453.96,392.3 189.24,104.18 360.94,156.27 567.72,172.23 183.39,13.82 398.67,-6.92 567.18,-54.76 182.34,-51.56 356.16,-151.49 788.86,-529.97l377.41 358.82c373.16,355.08 376.36,360.4 298.21,482.66 -43.06,68.05 -184.99,206.25 -315.22,306.71 -130.23,100.47 -375.81,239.75 -545.39,309.38 -169.58,69.63 -468.84,149.37 -665.53,177.55 -242.39,35.08 -485.31,35.61 -752.17,2.65 -217.4,-27.11 -516.68,-91.43 -666.05,-142.45 -149.37,-51.56 -393.35,-171.7 -542.72,-266.86 -149.38,-95.68 -365.73,-277.48 -481.08,-403.99 -115.35,-126.51 -267.9,-347.11 -339.12,-490.1 -71.77,-143 -160.54,-360.4 -197.74,-482.66 -37.22,-122.79 -80.81,-378.48 -96.75,-569.32 -19.66,-232.29 -3.19,-468.3 49.44,-717.62 43.59,-204.11 139.8,-492.76 214.75,-641.6 74.42,-148.32 257.27,-394.95 406.64,-546.99 149.37,-152.56 393.35,-347.11 542.72,-433.22 148.84,-85.59 437.49,-199.88 641.07,-254.09 216.35,-57.41 533.7,-98.88 764.4,-99.93zm-23479.34 212.1c-189.77,89.84 -483.73,278.01 -653.29,418.86 -169.58,140.87 -308.31,278.55 -308.31,305.66 0,27.11 88.77,49.44 197.21,49.44 108.43,0 211.03,-23.91 228.04,-53.69 17.01,-29.77 211.03,-188.17 431.62,-351.9 220.61,-163.71 424.72,-350.83 453.97,-416.21 29.23,-64.85 40.4,-117.49 24.44,-116.42 -15.41,0.53 -183.92,74.95 -373.69,164.26zm-8459.35 -116.96l519.86 1620.75c285.99,891.44 529.45,1610.13 540.07,1596.31 11.17,-13.83 250.37,-737.3 1041.35,-3192.07l1179 -27.65 517.74 1609.59c284.92,885.6 528.92,1609.59 542.74,1608.53 13.29,-0.54 150.44,-396.02 304.59,-878.15 154.16,-482.66 381.67,-1205.6 730.91,-2337.31l1233.23 0 -42.52 136.09c-23.91,74.95 -278.01,848.91 -565.05,1720.14 -287.05,870.71 -628.85,1912.06 -995.62,3044.29l-1307.13 -0.53 -505.52 -1558.55c-278.01,-857.42 -518.81,-1542.08 -534.75,-1521.89 -15.94,20.21 -198.28,570.91 -405.06,1224.21 -206.78,653.29 -421.53,1337.95 -576.75,1856.24l-1307.13 -0.53 -809.58 -2387.81c-445.46,-1313.5 -820.74,-2415.44 -834.03,-2449.47 -18.61,-47.84 125.46,-62.2 1273.64,-62.2zm13022.34 0l1319.35 1.07c993.5,0.53 1395.36,18.61 1627.67,73.89 169.56,40.4 397.07,118 505.5,172.76 108.43,54.21 281.2,182.32 383.26,284.39 102.06,102.06 240.28,297.14 307.78,433.22 106.85,216.87 121.73,311.5 120.67,767.06 -1.6,430.03 -20.73,560.28 -110.57,754.82 -60.06,129.18 -181.27,315.22 -269.51,413.56 -88.24,98.35 -238.14,224.33 -332.76,280.67 -95.14,56.34 -178.06,109.5 -184.96,118.54 -6.92,9.04 49.97,99.4 126.5,201.46 76.55,102.07 320.53,447.58 542.74,767.06 221.65,320 403.45,592.7 403.45,606.52 0,13.82 -304.06,19.14 -1350.69,0l-902.61 -1336.36 -953.1 -24.46 0 1385.8 -1232.7 0 0 -4900zm4932.4 0l1233.25 0 0 3860.26 2417.04 0 0 1039.74 -3650.29 0 0 -4900zm4193.01 0l1319.36 -0.53c1172.1,-0.53 1363.46,11.17 1713.77,101.53 217.42,55.81 503.94,162.13 637.35,235.48 133.43,73.37 352.97,233.9 487.45,356.69 134.48,122.26 296.61,311.49 360.4,420.46 63.8,108.97 162.66,365.19 220.61,569.32 79.73,281.2 105.25,508.71 105.25,1509.13l-214.77 389.63c-127.04,230.71 -316.81,483.2 -464.58,618.74 -137.68,125.98 -359.34,289.19 -493.3,363.07 -133.96,73.37 -421,179.67 -638.42,235.48 -350.3,90.36 -541.67,101.53 -3033.13,101l0 -4900zm12281.86 0l1234.84 0 23.39 3142.64 136.61 247.7c75.49,136.08 219.54,302.46 320.54,369.44 136.08,89.84 267.37,126.51 504.45,139.27 262.06,14.89 361.47,-3.19 542.21,-96.75 122.25,-63.26 272.16,-192.95 333.82,-288.1 61.66,-95.68 133.96,-279.08 160.54,-408.24 26.58,-129.71 48.91,-881.35 48.91,-3105.97l1233.23 0 -17.54 1596.31c-13.82,1312.43 -31.9,1648.91 -100.47,1892.91 -46.24,163.19 -154.69,417.28 -241.86,564 -101,170.63 -265.26,346.58 -453.96,485.84 -166.38,122.8 -436.42,263.13 -616.63,320.02 -239.73,76 -451.83,101.53 -838.81,100.46 -383.26,-0.53 -601.2,-27.11 -838.28,-102.58 -176.48,-55.83 -429.5,-174.9 -562.4,-264.2 -132.36,-89.82 -313.63,-263.12 -402.39,-385.91 -89.31,-122.26 -211.03,-333.83 -271.1,-469.91 -95.68,-215.82 -114.82,-374.76 -149.37,-1237.48 -21.26,-544.33 -40.4,-1329.46 -41.99,-1744.61l-3.72 -754.84zm5229.04 0l1282.14 0c749.5,0 1390.57,22.86 1541.54,54.76 142.47,30.3 369.98,110.04 505.53,177.02 136.06,66.98 332.21,203.58 435.86,303.52 104.2,100.47 247.18,293.96 317.35,430.04 102.6,198.28 132.36,335.94 148.32,692.63 17.54,375.81 3.18,491.7 -91.96,742.6 -63.26,167.98 -199.35,390.17 -312.57,511.89 -110.57,118.54 -267.37,255.16 -348.71,304.6 -81.31,48.9 -258.85,128.64 -394.93,177.53 -181.27,65.4 -459.27,95.68 -1860.5,144.07l11.17 1361.34 -1233.23 0 0 -4900zm-29133.09 185.52c48.37,74.96 69.63,150.44 46.77,167.45 -22.86,17.01 -152.02,66.45 -288.1,110.03 -135.55,44.12 -287.59,107.92 -338.08,142.47 -80.8,55.28 -88.24,107.9 -61.66,446.51 29.76,383.26 30.3,383.26 214.75,476.29 102.06,51.04 307.25,194.56 456.62,318.4l271.09 225.93c497.02,-193.5 645.86,-253.57 651.71,-257.81 5.85,-4.79 28.7,-219.54 51.04,-478.41l41.45 -469.91c-232.82,-263.12 -466.72,-447.58 -670.3,-579.94 -203.06,-131.83 -390.7,-239.21 -416.75,-238.68 -26.04,1.07 -7.44,63.27 41.47,137.68zm-1967.33 372.11c-136.08,89.31 -330.11,228.57 -431.64,309.38 -171.69,137.13 -184.45,165.31 -179.13,394.95 3.18,136.08 19.66,314.68 37.2,396.02 28.18,132.89 71.77,163.19 413.56,284.92l381.67 136.08c477.87,-368.38 677.75,-513.49 752.17,-559.75 121.72,-74.95 135.01,-110.55 130.23,-343.91 -3.19,-142.47 -20.21,-324.26 -37.22,-403.46 -27.63,-126.51 -73.35,-158.41 -376.34,-260.47 -189.78,-63.8 -367.86,-115.89 -394.96,-115.89 -27.11,0 -159.99,72.82 -295.55,162.13zm5721.8 1941.82c1133.3,-7.99 1260.88,-24.46 1405.46,-106.32 95.15,-53.16 223.26,-173.83 285.45,-267.91 70.7,-107.38 111.64,-242.93 110.57,-368.37 -0.53,-108.44 -39.87,-274.83 -87.71,-369.45 -47.3,-94.09 -163.71,-216.87 -258.87,-272.16 -144.05,-83.99 -278.53,-103.13 -822.34,-118l-650.1 -17.01 17.54 1519.22zm9100.42 1410.25c803.2,0 1141.81,-22.33 1270.45,-49.44 128.65,-27.65 355.62,-122.26 503.94,-210.5 215.28,-128.11 297.67,-215.82 406.64,-432.69 74.95,-149.91 160.54,-427.92 189.77,-618.76 49.44,-318.93 44.12,-369.97 -63.26,-643.2 -64.31,-163.19 -165.84,-369.44 -225.39,-457.68 -69.63,-102.6 -229.64,-219 -441.72,-321.6 -313.63,-150.97 -370.51,-161.61 -980.75,-178.6l-647.44 -18.61 -12.24 2931.07zm17511.44 -1385.27c1032.84,0.53 1140.22,-14.89 1331.05,-111.1 122.26,-61.67 272.69,-189.78 334.36,-284.92 76.55,-117.49 112.15,-245.59 111.1,-396.02 -0.54,-133.43 -40.94,-287.05 -99.95,-383.8 -54.74,-89.29 -190.82,-204.11 -307.77,-258.34 -171.17,-79.73 -316.82,-98.33 -789.39,-99.4l-579.41 -1.05 0 1534.64zm-33242.64 -173.3c-226.46,291.3 -247.72,339.14 -220.6,507.12 15.94,102.06 71.75,324.79 123.32,494.9 92.49,306.18 96.75,310.96 401.87,453.43 169.58,79.2 363.59,158.94 431.64,177.53 108.96,29.77 154.67,-5.85 390.7,-304.59l267.91 -338.61c-123.33,-383.78 -194.03,-622.99 -236.03,-779.8l-77.6 -284.39c-592.18,-191.89 -779.28,-247.18 -797.36,-247.18 -18.61,0 -146.18,144.59 -283.85,321.6zm3572.67 -192.96l-296.09 119.07 -353.5 1113.11c273.76,437.49 386.45,565.6 427.39,566.65 40.92,1.07 229.09,-44.65 419.4,-102.06 189.77,-57.41 373.16,-112.69 406.64,-123.33 34.02,-10.62 95.68,-103.11 137.15,-205.18 41.99,-102.06 108.44,-347.11 148.3,-544.32 39.87,-197.21 72.3,-369.98 72.3,-383.8 0,-13.29 -33.48,-13.29 -73.88,0 -48.38,16.48 -151.51,-78.67 -296.09,-272.16 -122.26,-163.19 -238.68,-295.02 -258.87,-292.37 -20.21,2.67 -170.1,58.48 -332.76,124.39zm-4315.81 366.26c-0.53,95.14 23.4,306.71 53.16,469.9 29.77,163.19 124.93,452.9 211.57,643.2 86.64,190.84 184.45,363.59 217.4,383.8 40.94,25.51 68.05,-13.82 85.06,-123.86 14.34,-93.56 -14.89,-274.81 -69.64,-432.69 -52.09,-149.9 -109.5,-372.63 -128.09,-495.42 -21.8,-148.3 -88.78,-288.64 -200.93,-420.47l-167.45 -197.74 -1.07 173.3zm2056.11 1309.78c-127.04,177.55 -231.76,345.53 -231.76,372.63 0,27.11 86.64,177.55 192.96,334.36l192.42 284.38c-236.54,165.33 -266.84,214.22 -232.82,247.18 27.63,27.65 308.31,49.44 627.24,49.44 358.82,0 651.71,-25.51 773.97,-67.5l197.74 -67.5 -246.65 -173.3c401.34,-470.44 518.28,-634.7 518.81,-668.71 0.54,-34.02 -83.45,-184.46 -186.57,-334.36l-187.64 -272.16 -1185.93 -27.65 -231.76 323.2zm-6346.91 2418.62c229.11,16.48 590.04,72.82 801.59,124.91 211.03,52.11 571.97,192.96 801.08,313.1 229.09,119.6 511.89,312.03 839.88,636.82l-500.21 502.85c-320.53,322.67 -524.66,483.2 -568.77,447.58 -37.75,-30.83 -211.03,-150.97 -384.85,-266.31 -173.3,-115.87 -474.15,-256.22 -668.16,-312.03 -227.51,-65.38 -500.21,-91.43 -769.18,-73.35 -265.26,18.07 -543.79,87.71 -768.65,193.49 -194.02,90.89 -447.04,275.88 -562.4,411.43 -115.35,135.55 -269.51,404.52 -342.86,597.48 -103.65,273.76 -126.51,450.78 -104.72,798.95 19.68,308.31 78.67,545.92 190.84,766.51 89.31,175.42 273.76,421.53 410.38,546.99 136.61,124.91 421.53,292.89 633.09,372.63 301.41,114.28 480.54,140.86 832.98,122.79 275.35,-14.36 547.51,-72.3 961.58,-275.88l31.9 -1756.83 1505.93 0 -31.9 2683.35 -592.7 285.45c-347.64,167.98 -798.41,326.39 -1089.71,383.8 -273.21,53.69 -669.76,97.26 -881.33,97.26 -211.56,0 -608.1,-42.52 -881.33,-94.61 -278.55,-53.69 -707.52,-199.34 -977.03,-332.76 -310.43,-153.62 -611.3,-368.91 -849.45,-608.12 -235.48,-236.54 -449.16,-536.88 -592.69,-832.96 -161.08,-333.29 -245.59,-625.13 -300.88,-1038.14 -66.98,-500.21 -62.71,-642.14 33.5,-1086.53 61.13,-281.2 174.88,-639.47 253.02,-796.29 78.67,-156.81 318.42,-473.11 533.7,-702.74 228.57,-243.45 549.11,-501.25 769.18,-618.74 207.85,-110.57 522,-249.83 698.48,-309.38 175.95,-59.53 507.64,-131.29 736.75,-159.47 229.11,-28.18 603.87,-37.75 832.96,-21.26zm5764.85 84.52l1669.65 0 262.59 558.68c144.59,307.78 796.3,1708.99 1448.52,3114.99 652.78,1405.46 1197.63,2591.39 1211.99,2635.51 19.14,61.13 -177.02,79.74 -1705.27,79.74l-149.37 -303.53c-82.39,-166.91 -212.1,-468.84 -427.39,-1038.14l-2916.18 -4.79 -578.34 1314.57 -1761.08 31.9 89.31 -175.95c48.9,-96.21 441.72,-937.16 872.83,-1868.47 431.1,-931.3 999.87,-2167.72 1264.59,-2747.66 264.73,-579.41 534.77,-1176.36 599.62,-1325.73l118.54 -271.1zm5323.11 0l1638.31 0 5.85 941.94c3.18,518.82 9.57,1654.25 21.79,4105.31l3140.49 0 0 1341.68 -4806.43 0 0 -6388.92zm7370.19 0l0 5047.25 3204.29 0 0 1341.68 -4870.75 0 -10.64 -3152.2c-5.85,-1733.45 13.29,-3170.8 42.54,-3194.21 29.76,-23.39 409.31,-42.52 1634.57,-42.52zm4101.57 0l4998.85 0 0 1341.68 -3332.38 0 0 1149.78 2893.85 31.9 22.33 1245.99 -2916.18 0 0 1341.68 3461.03 0 0 1277.89 -5127.5 0 0 -6388.92zm6088.57 0l1714.31 1.07c1288.52,0.53 1825.93,24.98 2162.95,97.81 247.18,53.16 590.04,174.88 762.26,270.56 172.77,95.15 432.17,304.59 576.76,464.59 156.27,172.23 309.91,432.69 376.88,638.95 66.98,205.18 113.22,537.95 112.15,811.17 -1.05,319.47 -44.65,576.75 -141.93,830.31 -89.84,234.94 -245.58,470.97 -432.69,654.89 -160.54,158.41 -371.56,344.98 -646.92,543.26l706.45 1006.26c388.05,553.36 705.92,1020.61 705.92,1038.14 0,17.54 -403.46,31.9 -1794.58,31.9l-1185.39 -1786.08 -1249.72 -3.18 0 1789.26 -1666.47 0 0 -6388.92zm7713.04 31.9l805.87 1292.24c443.32,710.72 826.05,1270.98 849.97,1245.47 24.44,-25.51 387.51,-606.52 1570.24,-2537.7l843.6 -15.94c778.21,-14.89 839.86,-7.44 806.37,95.68 -20.19,61.66 -298.2,528.9 -617.67,1038.14 -319.46,509.77 -869.64,1386.32 -1864.19,2970.94l19.14 2268.2 -1666.47 0 0 -1150.31c0,-1022.2 -13.29,-1169.45 -121.21,-1325.73 -66.44,-96.21 -643.2,-1002.01 -1281.6,-2012.52 -638.42,-1009.98 -1159.88,-1851.99 -1158.83,-1870.58 0.53,-18.08 409.31,-25.53 1814.77,2.12zm-6088.04 1517.1c23.93,114.28 42.52,545.39 41.99,958.4l-0.53 750.59c1474.03,1.05 1604.79,-16.48 1854.64,-143 156.81,-79.2 343.93,-225.39 416.75,-324.79 90.89,-124.39 130.23,-272.69 127.04,-478.94 -2.65,-164.26 -53.16,-392.3 -112.17,-506.59 -66.98,-129.71 -209.43,-255.15 -379.53,-333.82 -228.04,-105.78 -412.49,-126.51 -1131.7,-128.11l-859.02 -1.07 42.52 207.32zm-23945.52 702.73c-123.33,290.24 -328.51,764.39 -456.08,1054.63l-231.78 526.78c1780.23,0 1856.78,-9.57 1836.04,-111.62 -12.22,-61.66 -197.74,-535.82 -411.96,-1054.1 -214.22,-518.28 -417.28,-942.46 -450.78,-942.46 -33.48,0 -161.59,237.07 -285.45,526.78zm-11777.94 -8750.66c26.58,0 49.44,2882.16 51.04,12808.64l-1497.96 -1493.7 -19.14 -9767.02 708.58 -773.97c389.65,-425.78 730.91,-773.96 757.49,-773.96zm-13972.25 1551.12l375.81 344.46c206.78,189.77 465.12,448.11 574.09,574.09 178.62,207.31 198.81,585.79 206.78,7352.1l-1155.09 1148.71 -1.6 -9419.37zm6007.78 1441.61c615.03,-4.79 775.55,29.76 775.55,166.38 0,94.61 129.16,327.44 287.05,517.21 223.78,268.44 382.19,345.53 718.14,348.18 258.34,2.65 557.08,-89.31 746.85,-229.64 199.88,-147.77 421,-212.63 602.8,-175.95 157.88,31.37 450.23,199.34 649.58,373.16 199.34,173.83 553.36,600.15 786.72,947.78 233.36,347.12 484.26,747.92 557.08,889.84 122.26,239.75 83.45,288.12 -528.38,661.79 -363.59,221.67 -686.79,404.53 -718.16,406.66 -31.36,2.12 -199.34,-205.18 -373.16,-460.34 -173.81,-255.13 -355.08,-444.9 -402.39,-420.99 -47.31,23.93 -119.07,165.85 -159.47,315.74 -40.4,149.91 -259.94,983.4 -487.98,1852.51 -228.58,868.58 -415.16,1682.41 -415.16,1808.94 0,126.51 -26.05,229.64 -57.41,229.64 -31.9,0 -484.26,-101 -1005.19,-224.33 -521.46,-123.84 -1339.01,-369.44 -1817.42,-545.92 -478.41,-176.48 -995.1,-403.99 -1428.33,-691.04l485.33 -1021.15c266.31,-561.33 576.75,-1393.24 688.91,-1847.71 112.69,-455.03 164.78,-868.58 116.94,-919.09 -48.37,-50.49 -293.95,-1.58 -545.92,108.97 -453.43,198.81 -459.8,198.28 -621.41,-57.41 -89.84,-142.45 -257.81,-452.36 -373.16,-689.44 -138.73,-283.85 -171.16,-467.25 -95.15,-536.88 63.26,-58.48 502.34,-262.61 976.5,-453.97 651.69,-262.06 1050.38,-348.18 1637.22,-352.95zm-4295.06 7347.85c103.13,1.05 2488.27,307.24 10412.87,1360.29l720.81 726.12c396.02,399.21 680.4,739.95 631.5,756.96 -48.91,17 -1407.06,-151.51 -3018.24,-374.76 -1611.73,-223.26 -4506.62,-612.91 -6434.1,-866.46 -1926.94,-254.09 -3549.81,-473.09 -3606.15,-486.92 -56.88,-14.34 169.03,-271.09 501.27,-571.43 332.24,-300.34 688.38,-544.86 792.04,-543.79z"/>
 </g>
</svg>
