<?xml version="1.0" encoding="UTF-8"?>
<!DOCTYPE svg PUBLIC "-//W3C//DTD SVG 1.1//EN" "http://www.w3.org/Graphics/SVG/1.1/DTD/svg11.dtd">
<!-- Creator: CorelDRAW -->
<svg xmlns="http://www.w3.org/2000/svg" xml:space="preserve" width="24.6327mm" height="23.7614mm" version="1.1" style="shape-rendering:geometricPrecision; text-rendering:geometricPrecision; image-rendering:optimizeQuality; fill-rule:evenodd; clip-rule:evenodd"
viewBox="0 0 170.04 164.03"
 xmlns:xlink="http://www.w3.org/1999/xlink"
 xmlns:xodm="http://www.corel.com/coreldraw/odm/2003">
 <defs>
  <style type="text/css">
   <![CDATA[
    .fil0 {fill:#2587C6}
   ]]>
  </style>
 </defs>
 <g id="Capa_x0020_1">
  <metadata id="CorelCorpID_0Corel-Layer"/>
  <path class="fil0" d="M20.82 129.68c1.28,0 30.14,3.65 126.21,16.44l8.77 8.77c4.75,4.93 8.22,8.95 7.67,9.13 -0.55,0.18 -16.99,-1.83 -36.53,-4.57 -19.54,-2.56 -54.61,-7.31 -77.99,-10.41 -23.38,-3.11 -43.1,-5.66 -43.84,-5.84 -0.55,-0.18 2.19,-3.29 6.21,-6.94 4.02,-3.65 8.22,-6.58 9.5,-6.58zm142.83 -129.68l-9.13 9.13c-8.77,8.77 -9.13,8.95 -17.9,9.68 -5.11,0.55 -31.6,3.47 -59.18,6.39 -27.58,3.11 -52.24,5.48 -54.79,5.48 -3.47,0 -6.03,-1.46 -11.69,-6.94 -5.84,-5.48 -6.76,-6.94 -4.57,-6.94 1.46,0 25.57,-2.56 53.52,-5.66 27.94,-3.11 60.27,-6.76 71.78,-8.22 11.51,-1.28 23.38,-2.56 31.96,-2.92l0 -0zm5.84 4.2c0.37,0 0.55,35.07 0.55,155.25l-18.08 -18.08 -0.37 -118.35 8.58 -9.32c4.75,-5.3 8.95,-9.5 9.32,-9.5zm-169.5 18.81l4.57 4.2c2.56,2.37 5.66,5.48 7.12,6.94 2.01,2.56 2.37,7.12 2.37,89.13l-13.88 13.88 -0.18 -114.15 -0 0zm72.88 17.53c7.49,0 9.5,0.37 9.5,2.01 0,1.1 1.46,4.02 3.47,6.21 2.74,3.29 4.57,4.2 8.58,4.2 3.29,0.18 6.76,-0.91 9.13,-2.74 2.37,-1.83 5.11,-2.56 7.31,-2.01 1.83,0.37 5.48,2.37 7.85,4.38 2.37,2.19 6.76,7.31 9.5,11.51 2.92,4.2 5.84,9.13 6.76,10.78 1.46,2.92 1.1,3.47 -6.39,8.04 -4.38,2.74 -8.22,4.93 -8.77,4.93 -0.37,0 -2.37,-2.37 -4.38,-5.48 -2.19,-3.11 -4.38,-5.48 -4.93,-5.11 -0.55,0.18 -1.46,2.01 -2.01,3.84 -0.37,1.83 -3.11,11.87 -5.84,22.47 -2.74,10.41 -4.93,20.27 -4.93,21.92 0,1.46 -0.37,2.74 -0.73,2.74 -0.37,0 -5.84,-1.28 -12.24,-2.74 -6.39,-1.46 -16.26,-4.57 -22.1,-6.58 -5.66,-2.19 -12.05,-4.93 -17.17,-8.4l5.84 -12.42c3.11,-6.76 6.94,-16.8 8.4,-22.47 1.28,-5.48 1.83,-10.41 1.28,-11.14 -0.55,-0.55 -3.47,0 -6.58,1.46 -5.48,2.37 -5.48,2.37 -7.49,-0.73 -1.1,-1.83 -3.11,-5.48 -4.57,-8.4 -1.64,-3.47 -2.01,-5.66 -1.1,-6.39 0.73,-0.73 6.03,-3.29 11.87,-5.66 7.85,-3.11 12.6,-4.2 19.73,-4.2l0 0z"/>
 </g>
</svg>
